<?xml version="1.0" encoding="iso-8859-1"?>
<!-- Generator: Adobe Illustrator 18.0.0, SVG Export Plug-In . SVG Version: 6.00 Build 0)  -->
<!DOCTYPE svg PUBLIC "-//W3C//DTD SVG 1.1//EN" "http://www.w3.org/Graphics/SVG/1.1/DTD/svg11.dtd">
<svg version="1.1" id="Capa_1" xmlns="http://www.w3.org/2000/svg" xmlns:xlink="http://www.w3.org/1999/xlink" x="0px" y="0px"
	 viewBox="0 0 268.881 268.881" style="enable-background:new 0 0 268.881 268.881;" xml:space="preserve">
<path d="M212.931,264.777L212.931,264.777c6.329-2.765,9.216-10.138,6.447-16.465l-54.844-125.338
	c-1.988-4.554-6.486-7.496-11.454-7.496h-6.215L146.885,73h1.674c7.65,0,13.827-6.326,13.553-13.971
	c-0.005-0.131-0.009-0.218-0.014-0.253h3.654l27.317,44.576c3.716,6.064,11.739,7.804,17.634,3.825l0,0
	c5.539-3.739,7.153-11.177,3.661-16.875l-27.179-44.351c-4.557-7.436-12.597-12.028-21.316-12.176h0V13.559
	C165.869,6.071,159.798,0,152.31,0h-35.852c-7.489,0-13.559,6.071-13.559,13.559v20.217h-1.5c-6.904,0-12.5,5.596-12.5,12.5v0
	c0,6.904,5.596,12.5,12.5,12.5h5.271c-0.005,0.035-0.01,0.122-0.014,0.253C106.382,66.674,112.559,73,120.208,73h1.676
	l-0.019,42.478h-6.215c-4.969,0-9.466,2.942-11.454,7.495L49.505,247.736c-2.774,6.328,0.112,13.706,6.443,16.473l0.001,0.001
	c6.32,2.762,13.683-0.118,16.452-6.434l5.085-11.595h44.379v10.201c0,6.903,5.596,12.5,12.5,12.5h0c6.903,0,12.5-5.596,12.5-12.5
	V246.18h44.291l5.319,12.154C199.242,264.656,206.608,267.54,212.931,264.777z M180.216,221.18h-33.35v-76.206L180.216,221.18z
	 M121.866,144.975v76.206H88.449L121.866,144.975z"/>
<g>
</g>
<g>
</g>
<g>
</g>
<g>
</g>
<g>
</g>
<g>
</g>
<g>
</g>
<g>
</g>
<g>
</g>
<g>
</g>
<g>
</g>
<g>
</g>
<g>
</g>
<g>
</g>
<g>
</g>
</svg>
