<?xml version="1.0" encoding="utf-8"?>
<!-- Generated by IcoMoon.io -->
<!DOCTYPE svg PUBLIC "-//W3C//DTD SVG 1.1//EN" "http://www.w3.org/Graphics/SVG/1.1/DTD/svg11.dtd">
<svg version="1.1" xmlns="http://www.w3.org/2000/svg" xmlns:xlink="http://www.w3.org/1999/xlink" width="512" height="512" viewBox="0 0 512 512">
<g>
</g>
	<path d="M272 0h-32c-97.219 0-176 78.797-176 176 0 68.398 39.009 127.682 96 156.812v19.188c0 17.672 14.312 32 32 32h128c17.688 0 32-14.328 32-32v-19.195c56.982-29.133 96-88.412 96-156.805 0-97.203-78.812-176-176-176zM288 286.857v33.143h-64v-33.143c-54.267-7.766-96-54.433-96-110.857 0-61.859 50.156-112 112-112h32c61.844 0 112 50.141 112 112 0 56.425-41.733 103.092-96 110.857zM208 416h96c8.844 0 16 7.172 16 16s-7.156 16-16 16h-96c-8.844 0-16-7.172-16-16s7.156-16 16-16zM240 480h32c8.844 0 16 7.172 16 16s-7.156 16-16 16h-32c-8.844 0-16-7.172-16-16s7.156-16 16-16z" fill="#000000" />
</svg>
